<mxfile host="app.diagrams.net" modified="2023-04-26T14:35:40.163Z" agent="Mozilla/5.0 (Windows NT 10.0; Win64; x64) AppleWebKit/537.36 (KHTML, like Gecko) Chrome/112.0.0.0 Safari/537.36" etag="_fAsP4SRF8E5NzTMIkq0" version="21.2.2" type="device">
  <diagram name="페이지-1" id="vv5zd8Dzl1DdL4wDsNCf">
    <mxGraphModel dx="837" dy="565" grid="1" gridSize="10" guides="1" tooltips="1" connect="1" arrows="1" fold="1" page="1" pageScale="1" pageWidth="827" pageHeight="1169" math="0" shadow="0">
      <root>
        <mxCell id="0" />
        <mxCell id="1" parent="0" />
        <mxCell id="8IbE6bKqcXtA7niTnNE3-24" style="edgeStyle=none;shape=connector;rounded=0;orthogonalLoop=1;jettySize=auto;html=1;exitX=0.5;exitY=1;exitDx=0;exitDy=0;entryX=0.5;entryY=0;entryDx=0;entryDy=0;labelBackgroundColor=default;strokeColor=default;fontFamily=Helvetica;fontSize=11;fontColor=default;endArrow=ERzeroToOne;endFill=0;startArrow=ERoneToMany;startFill=0;" edge="1" parent="1" source="8IbE6bKqcXtA7niTnNE3-13" target="8IbE6bKqcXtA7niTnNE3-14">
          <mxGeometry relative="1" as="geometry" />
        </mxCell>
        <mxCell id="8IbE6bKqcXtA7niTnNE3-51" style="edgeStyle=none;shape=connector;rounded=0;orthogonalLoop=1;jettySize=auto;html=1;exitX=1;exitY=1;exitDx=0;exitDy=0;entryX=0;entryY=0;entryDx=0;entryDy=0;labelBackgroundColor=default;strokeColor=default;fontFamily=Helvetica;fontSize=11;fontColor=default;endArrow=ERzeroToMany;endFill=0;startArrow=ERone;startFill=0;" edge="1" parent="1" source="8IbE6bKqcXtA7niTnNE3-13" target="8IbE6bKqcXtA7niTnNE3-15">
          <mxGeometry relative="1" as="geometry" />
        </mxCell>
        <mxCell id="8IbE6bKqcXtA7niTnNE3-13" value="음식점" style="whiteSpace=wrap;html=1;aspect=fixed;fontFamily=Helvetica;fontSize=11;fontColor=default;" vertex="1" parent="1">
          <mxGeometry x="160" y="340" width="80" height="80" as="geometry" />
        </mxCell>
        <mxCell id="8IbE6bKqcXtA7niTnNE3-17" style="edgeStyle=none;shape=connector;rounded=0;orthogonalLoop=1;jettySize=auto;html=1;exitX=1;exitY=0.5;exitDx=0;exitDy=0;entryX=0;entryY=0.5;entryDx=0;entryDy=0;labelBackgroundColor=default;strokeColor=default;fontFamily=Helvetica;fontSize=11;fontColor=default;endArrow=ERoneToMany;endFill=0;startArrow=ERzeroToOne;startFill=0;" edge="1" parent="1" source="8IbE6bKqcXtA7niTnNE3-14" target="8IbE6bKqcXtA7niTnNE3-15">
          <mxGeometry relative="1" as="geometry" />
        </mxCell>
        <mxCell id="8IbE6bKqcXtA7niTnNE3-14" value="메뉴 카테고리" style="whiteSpace=wrap;html=1;aspect=fixed;fontFamily=Helvetica;fontSize=11;fontColor=default;" vertex="1" parent="1">
          <mxGeometry x="160" y="610" width="80" height="80" as="geometry" />
        </mxCell>
        <mxCell id="8IbE6bKqcXtA7niTnNE3-15" value="메뉴" style="whiteSpace=wrap;html=1;aspect=fixed;fontFamily=Helvetica;fontSize=11;fontColor=default;" vertex="1" parent="1">
          <mxGeometry x="579" y="610" width="80" height="80" as="geometry" />
        </mxCell>
        <mxCell id="8IbE6bKqcXtA7niTnNE3-18" style="edgeStyle=none;shape=connector;rounded=0;orthogonalLoop=1;jettySize=auto;html=1;exitX=0;exitY=0.5;exitDx=0;exitDy=0;labelBackgroundColor=default;strokeColor=default;fontFamily=Helvetica;fontSize=11;fontColor=default;endArrow=ERone;endFill=0;startArrow=ERzeroToMany;startFill=0;entryX=1;entryY=0.5;entryDx=0;entryDy=0;" edge="1" parent="1" source="8IbE6bKqcXtA7niTnNE3-16" target="8IbE6bKqcXtA7niTnNE3-13">
          <mxGeometry relative="1" as="geometry">
            <mxPoint x="260" y="380" as="targetPoint" />
          </mxGeometry>
        </mxCell>
        <mxCell id="8IbE6bKqcXtA7niTnNE3-16" value="음식점 평가" style="whiteSpace=wrap;html=1;aspect=fixed;fontFamily=Helvetica;fontSize=11;fontColor=default;" vertex="1" parent="1">
          <mxGeometry x="590" y="340" width="80" height="80" as="geometry" />
        </mxCell>
        <mxCell id="8IbE6bKqcXtA7niTnNE3-32" style="edgeStyle=none;shape=connector;rounded=0;orthogonalLoop=1;jettySize=auto;html=1;exitX=1;exitY=0.5;exitDx=0;exitDy=0;entryX=0;entryY=0.25;entryDx=0;entryDy=0;labelBackgroundColor=default;strokeColor=default;fontFamily=Helvetica;fontSize=11;fontColor=default;endArrow=none;endFill=0;" edge="1" parent="1" source="8IbE6bKqcXtA7niTnNE3-25" target="8IbE6bKqcXtA7niTnNE3-14">
          <mxGeometry relative="1" as="geometry" />
        </mxCell>
        <mxCell id="8IbE6bKqcXtA7niTnNE3-25" value="한식" style="ellipse;whiteSpace=wrap;html=1;aspect=fixed;fontFamily=Helvetica;fontSize=11;fontColor=default;" vertex="1" parent="1">
          <mxGeometry x="90" y="630" width="40" height="40" as="geometry" />
        </mxCell>
        <mxCell id="8IbE6bKqcXtA7niTnNE3-31" style="edgeStyle=none;shape=connector;rounded=0;orthogonalLoop=1;jettySize=auto;html=1;exitX=1;exitY=0;exitDx=0;exitDy=0;entryX=0;entryY=0.75;entryDx=0;entryDy=0;labelBackgroundColor=default;strokeColor=default;fontFamily=Helvetica;fontSize=11;fontColor=default;endArrow=none;endFill=0;" edge="1" parent="1" source="8IbE6bKqcXtA7niTnNE3-26" target="8IbE6bKqcXtA7niTnNE3-14">
          <mxGeometry relative="1" as="geometry" />
        </mxCell>
        <mxCell id="8IbE6bKqcXtA7niTnNE3-26" value="일식" style="ellipse;whiteSpace=wrap;html=1;aspect=fixed;fontFamily=Helvetica;fontSize=11;fontColor=default;" vertex="1" parent="1">
          <mxGeometry x="90" y="690" width="40" height="40" as="geometry" />
        </mxCell>
        <mxCell id="8IbE6bKqcXtA7niTnNE3-29" style="edgeStyle=none;shape=connector;rounded=0;orthogonalLoop=1;jettySize=auto;html=1;exitX=0.5;exitY=0;exitDx=0;exitDy=0;entryX=0.25;entryY=1;entryDx=0;entryDy=0;labelBackgroundColor=default;strokeColor=default;fontFamily=Helvetica;fontSize=11;fontColor=default;endArrow=none;endFill=0;" edge="1" parent="1" source="8IbE6bKqcXtA7niTnNE3-27" target="8IbE6bKqcXtA7niTnNE3-14">
          <mxGeometry relative="1" as="geometry" />
        </mxCell>
        <mxCell id="8IbE6bKqcXtA7niTnNE3-27" value="양식" style="ellipse;whiteSpace=wrap;html=1;aspect=fixed;fontFamily=Helvetica;fontSize=11;fontColor=default;" vertex="1" parent="1">
          <mxGeometry x="150" y="730" width="40" height="40" as="geometry" />
        </mxCell>
        <mxCell id="8IbE6bKqcXtA7niTnNE3-30" style="edgeStyle=none;shape=connector;rounded=0;orthogonalLoop=1;jettySize=auto;html=1;exitX=0.5;exitY=0;exitDx=0;exitDy=0;entryX=0.75;entryY=1;entryDx=0;entryDy=0;labelBackgroundColor=default;strokeColor=default;fontFamily=Helvetica;fontSize=11;fontColor=default;endArrow=none;endFill=0;" edge="1" parent="1" source="8IbE6bKqcXtA7niTnNE3-28" target="8IbE6bKqcXtA7niTnNE3-14">
          <mxGeometry relative="1" as="geometry" />
        </mxCell>
        <mxCell id="8IbE6bKqcXtA7niTnNE3-28" value="중식" style="ellipse;whiteSpace=wrap;html=1;aspect=fixed;fontFamily=Helvetica;fontSize=11;fontColor=default;" vertex="1" parent="1">
          <mxGeometry x="220" y="730" width="40" height="40" as="geometry" />
        </mxCell>
        <mxCell id="8IbE6bKqcXtA7niTnNE3-38" style="edgeStyle=none;shape=connector;rounded=0;orthogonalLoop=1;jettySize=auto;html=1;exitX=0.5;exitY=1;exitDx=0;exitDy=0;entryX=0;entryY=0;entryDx=0;entryDy=0;labelBackgroundColor=default;strokeColor=default;fontFamily=Helvetica;fontSize=11;fontColor=default;endArrow=none;endFill=0;" edge="1" parent="1" source="8IbE6bKqcXtA7niTnNE3-33" target="8IbE6bKqcXtA7niTnNE3-16">
          <mxGeometry relative="1" as="geometry" />
        </mxCell>
        <mxCell id="8IbE6bKqcXtA7niTnNE3-33" value="좋아요" style="ellipse;whiteSpace=wrap;html=1;aspect=fixed;fontFamily=Helvetica;fontSize=11;fontColor=default;" vertex="1" parent="1">
          <mxGeometry x="560" y="270" width="40" height="40" as="geometry" />
        </mxCell>
        <mxCell id="8IbE6bKqcXtA7niTnNE3-39" style="edgeStyle=none;shape=connector;rounded=0;orthogonalLoop=1;jettySize=auto;html=1;exitX=0.5;exitY=1;exitDx=0;exitDy=0;entryX=0.25;entryY=0;entryDx=0;entryDy=0;labelBackgroundColor=default;strokeColor=default;fontFamily=Helvetica;fontSize=11;fontColor=default;endArrow=none;endFill=0;" edge="1" parent="1" source="8IbE6bKqcXtA7niTnNE3-34" target="8IbE6bKqcXtA7niTnNE3-16">
          <mxGeometry relative="1" as="geometry" />
        </mxCell>
        <mxCell id="8IbE6bKqcXtA7niTnNE3-34" value="리뷰" style="ellipse;whiteSpace=wrap;html=1;aspect=fixed;fontFamily=Helvetica;fontSize=11;fontColor=default;" vertex="1" parent="1">
          <mxGeometry x="619" y="270" width="40" height="40" as="geometry" />
        </mxCell>
        <mxCell id="8IbE6bKqcXtA7niTnNE3-44" style="edgeStyle=none;shape=connector;rounded=0;orthogonalLoop=1;jettySize=auto;html=1;exitX=0;exitY=0.5;exitDx=0;exitDy=0;entryX=1;entryY=0.5;entryDx=0;entryDy=0;labelBackgroundColor=default;strokeColor=default;fontFamily=Helvetica;fontSize=11;fontColor=default;endArrow=none;endFill=0;" edge="1" parent="1" source="8IbE6bKqcXtA7niTnNE3-40" target="8IbE6bKqcXtA7niTnNE3-16">
          <mxGeometry relative="1" as="geometry" />
        </mxCell>
        <mxCell id="8IbE6bKqcXtA7niTnNE3-40" value="맛" style="ellipse;whiteSpace=wrap;html=1;aspect=fixed;fontFamily=Helvetica;fontSize=11;fontColor=default;" vertex="1" parent="1">
          <mxGeometry x="700" y="340" width="40" height="40" as="geometry" />
        </mxCell>
        <mxCell id="8IbE6bKqcXtA7niTnNE3-45" style="edgeStyle=none;shape=connector;rounded=0;orthogonalLoop=1;jettySize=auto;html=1;exitX=0;exitY=0;exitDx=0;exitDy=0;entryX=1;entryY=0.75;entryDx=0;entryDy=0;labelBackgroundColor=default;strokeColor=default;fontFamily=Helvetica;fontSize=11;fontColor=default;endArrow=none;endFill=0;" edge="1" parent="1" source="8IbE6bKqcXtA7niTnNE3-41" target="8IbE6bKqcXtA7niTnNE3-16">
          <mxGeometry relative="1" as="geometry" />
        </mxCell>
        <mxCell id="8IbE6bKqcXtA7niTnNE3-41" value="가격" style="ellipse;whiteSpace=wrap;html=1;aspect=fixed;fontFamily=Helvetica;fontSize=11;fontColor=default;" vertex="1" parent="1">
          <mxGeometry x="700" y="410" width="40" height="40" as="geometry" />
        </mxCell>
        <mxCell id="8IbE6bKqcXtA7niTnNE3-46" style="edgeStyle=none;shape=connector;rounded=0;orthogonalLoop=1;jettySize=auto;html=1;exitX=0.5;exitY=0;exitDx=0;exitDy=0;entryX=0.75;entryY=1;entryDx=0;entryDy=0;labelBackgroundColor=default;strokeColor=default;fontFamily=Helvetica;fontSize=11;fontColor=default;endArrow=none;endFill=0;" edge="1" parent="1" source="8IbE6bKqcXtA7niTnNE3-42" target="8IbE6bKqcXtA7niTnNE3-16">
          <mxGeometry relative="1" as="geometry" />
        </mxCell>
        <mxCell id="8IbE6bKqcXtA7niTnNE3-42" value="거리" style="ellipse;whiteSpace=wrap;html=1;aspect=fixed;fontFamily=Helvetica;fontSize=11;fontColor=default;" vertex="1" parent="1">
          <mxGeometry x="649" y="450" width="40" height="40" as="geometry" />
        </mxCell>
        <mxCell id="8IbE6bKqcXtA7niTnNE3-47" style="edgeStyle=none;shape=connector;rounded=0;orthogonalLoop=1;jettySize=auto;html=1;exitX=0.5;exitY=0;exitDx=0;exitDy=0;entryX=0.5;entryY=1;entryDx=0;entryDy=0;labelBackgroundColor=default;strokeColor=default;fontFamily=Helvetica;fontSize=11;fontColor=default;endArrow=none;endFill=0;" edge="1" parent="1" source="8IbE6bKqcXtA7niTnNE3-43" target="8IbE6bKqcXtA7niTnNE3-16">
          <mxGeometry relative="1" as="geometry" />
        </mxCell>
        <mxCell id="8IbE6bKqcXtA7niTnNE3-43" value="종합" style="ellipse;whiteSpace=wrap;html=1;aspect=fixed;fontFamily=Helvetica;fontSize=11;fontColor=default;" vertex="1" parent="1">
          <mxGeometry x="589" y="450" width="40" height="40" as="geometry" />
        </mxCell>
      </root>
    </mxGraphModel>
  </diagram>
</mxfile>
